<?xml version="1.0" standalone="no"?>
<!DOCTYPE svg PUBLIC "-//W3C//DTD SVG 20010904//EN"
 "http://www.w3.org/TR/2001/REC-SVG-20010904/DTD/svg10.dtd">
<svg version="1.0" xmlns="http://www.w3.org/2000/svg"
 width="300.000000pt" height="300.000000pt" viewBox="0 0 300.000000 300.000000"
 preserveAspectRatio="xMidYMid meet">
<metadata>
Created by potrace 1.10, written by Peter Selinger 2001-2011
</metadata>
<g transform="translate(0.000000,300.000000) scale(0.100000,-0.100000)"
fill="#000000" stroke="none">
<path d="M820 2215 l0 -95 170 0 170 0 0 -390 0 -390 95 0 95 0 0 185 0 185
271 -2 272 -3 -2 -182 -2 -183 100 0 101 0 0 485 0 485 -101 0 -100 0 2 -207
1 -208 -271 -3 -271 -2 0 115 0 115 150 0 150 0 0 95 0 95 -415 0 -415 0 0
-95z m791 48 c6 -6 9 -32 7 -59 l-3 -49 -127 -3 c-123 -3 -128 -3 -148 -29
-17 -22 -20 -40 -20 -121 0 -85 3 -98 22 -119 21 -23 23 -23 280 -23 245 0
259 1 278 20 18 18 20 33 20 189 0 93 3 176 6 185 5 12 21 16 70 16 l64 0 -2
-447 -3 -448 -61 -3 -61 -3 -7 32 c-3 17 -6 94 -6 170 0 131 -1 139 -22 153
-19 14 -63 16 -279 16 -247 0 -257 -1 -275 -21 -17 -18 -20 -42 -24 -183 l-5
-161 -60 0 -60 0 -5 368 -5 369 -24 19 c-20 17 -40 19 -162 19 l-139 0 -2 38
c-2 56 1 75 14 83 19 12 728 3 739 -8z"/>
<path d="M710 1165 c0 -22 4 -25 35 -25 l35 0 0 -96 c0 -93 1 -95 23 -92 21 3
22 7 21 95 l-2 92 37 3 c28 2 36 7 36 23 0 18 -8 20 -92 23 l-93 3 0 -26z"/>
<path d="M950 1073 l0 -118 80 0 c77 0 80 1 80 23 0 23 -3 24 -57 20 -57 -3
-58 -2 -61 25 -3 27 -3 27 57 27 54 0 61 2 61 20 0 18 -7 20 -61 20 -60 0 -60
0 -57 28 3 26 5 27 61 26 54 -1 57 0 57 22 0 23 -3 24 -80 24 l-80 0 0 -117z"/>
<path d="M1160 1165 c0 -22 4 -25 35 -25 l35 0 0 -95 c0 -95 0 -95 25 -95 25
0 25 0 25 95 l0 95 35 0 c31 0 35 3 35 25 0 25 0 25 -95 25 -95 0 -95 0 -95
-25z"/>
<path d="M1434 1178 c-12 -5 -27 -22 -33 -36 -16 -34 10 -70 63 -89 54 -18 69
-32 55 -49 -14 -18 -47 -17 -79 1 -18 9 -29 10 -37 3 -20 -16 -16 -26 17 -43
66 -34 150 -4 150 55 0 33 -14 46 -77 69 -27 9 -49 24 -51 33 -4 23 33 32 70
17 25 -10 31 -10 39 2 14 22 11 26 -22 38 -39 13 -67 13 -95 -1z"/>
<path d="M1623 1098 c6 -87 9 -95 37 -120 34 -32 75 -36 119 -13 37 19 39 26
42 132 2 83 1 88 -19 91 -21 3 -22 0 -22 -80 0 -94 -7 -108 -57 -108 -43 0
-53 21 -53 114 0 76 0 76 -26 76 l-27 0 6 -92z"/>
<path d="M1880 1165 c0 -22 4 -25 35 -25 l35 0 0 -95 c0 -88 1 -95 20 -95 19
0 20 7 20 95 l0 95 35 0 c31 0 35 3 35 25 0 25 -1 25 -90 25 -89 0 -90 0 -90
-25z"/>
<path d="M2165 1180 c-66 -27 -93 -112 -53 -170 31 -46 63 -62 116 -57 78 8
124 78 100 153 -22 65 -99 101 -163 74z m104 -66 c53 -67 -13 -148 -88 -110
-31 16 -41 34 -41 72 0 61 90 88 129 38z"/>
<path d="M1033 862 c-22 -3 -23 -7 -23 -118 l0 -114 25 0 c23 0 25 3 25 50 l0
50 50 0 50 0 0 -50 c0 -47 2 -50 25 -50 l25 0 0 114 c0 113 0 114 -25 118 -24
5 -25 3 -25 -46 l0 -52 -47 1 -48 1 -5 50 c-4 44 -7 49 -27 46z"/>
<path d="M1560 748 l0 -118 25 0 c24 0 25 2 19 40 -6 37 -5 40 17 40 16 0 33
-13 52 -40 20 -28 36 -40 53 -40 31 0 30 4 -6 50 l-30 38 25 16 c20 13 25 25
25 55 0 52 -19 65 -107 71 l-73 5 0 -117z m134 49 c15 -24 -18 -49 -59 -45
-26 3 -30 7 -33 36 l-3 33 42 -3 c27 -2 46 -9 53 -21z"/>
<path d="M1346 828 c-8 -18 -30 -70 -50 -115 l-35 -83 25 0 c16 0 28 8 35 24
10 20 20 25 62 28 47 3 50 1 59 -24 7 -20 17 -28 34 -28 13 0 24 3 24 8 0 4
-20 54 -44 112 -39 91 -48 105 -71 108 -21 3 -28 -3 -39 -30z m57 -63 c9 -20
17 -38 17 -40 0 -3 -16 -5 -35 -5 -19 0 -35 3 -35 7 0 14 24 73 30 73 4 0 14
-16 23 -35z"/>
<path d="M1838 745 l-47 -115 25 0 c17 0 27 8 34 24 7 20 17 25 61 27 49 4 52
2 61 -23 7 -21 17 -28 35 -28 16 0 23 5 20 13 -75 188 -90 217 -116 217 -24 0
-30 -10 -73 -115z m95 18 l15 -38 -30 -3 c-16 -2 -32 -1 -35 2 -6 6 19 76 28
76 4 0 14 -17 22 -37z"/>
</g>
</svg>
